PathFileType	4	(X/Y/Z)	s04c0401.trc
DataRate	CameraRate	NumFrames	NumMarkers	Units	OrigDataRate	OrigDataStartFrame	OrigNumFrames
200	200	5	50	mm	200	500	2000
Frame#	Time	racr			lacr			c7			jug			rlel			rdr			llel			ldr			s2			lic			ric			lasi			rasi			rpsi			lpsi			rgt			lgt			rth1			rth2			rth3			rth4			rlfc			rmfc			rsh1			rsh2			rsh3			rsh4			rlmal			rmmal			rcal			rtoe			rmt5			lth1			lth2			lth4			lth3			llfc			lmfc			lsh1			lsh2			lsh3			lsh4			llmal			lmmal			lcal			ltoe			lmt5			SBIKE			LBIKE			RBIKE			
		X1	Y1	Z1	X2	Y2	Z2	X3	Y3	Z3	X4	Y4	Z4	X5	Y5	Z5	X6	Y6	Z6	X7	Y7	Z7	X8	Y8	Z8	X9	Y9	Z9	X10	Y10	Z10	X11	Y11	Z11	X12	Y12	Z12	X13	Y13	Z13	X14	Y14	Z14	X15	Y15	Z15	X16	Y16	Z16	X17	Y17	Z17	X18	Y18	Z18	X19	Y19	Z19	X20	Y20	Z20	X21	Y21	Z21	X22	Y22	Z22	X23	Y23	Z23	X24	Y24	Z24	X25	Y25	Z25	X26	Y26	Z26	X27	Y27	Z27	X28	Y28	Z28	X29	Y29	Z29	X30	Y30	Z30	X31	Y31	Z31	X32	Y32	Z32	X33	Y33	Z33	X34	Y34	Z34	X35	Y35	Z35	X36	Y36	Z36	X37	Y37	Z37	X38	Y38	Z38	X39	Y39	Z39	X40	Y40	Z40	X41	Y41	Z41	X42	Y42	Z42	X43	Y43	Z43	X44	Y44	Z44	X45	Y45	Z45	X46	Y46	Z46	X47	Y47	Z47	X48	Y48	Z48	X49	Y49	Z49	X50	Y50	Z50	
500	2.5000	812.418402	1323.834370	-114.538277	780.256116	1336.339447	-428.496807	809.838521	1424.040411	-278.205386	751.126964	1270.640934	-275.565748	542.426045	1161.851074	18.464670	692.170590	946.972456	-91.025475	560.047812	1176.865092	-566.249367	681.560610	940.893198	-493.641828	204.971168	1331.001684	-294.357444	367.057858	1262.914856	-433.769560	341.421554	1334.626220	-123.936803	384.406197	1208.827634	-379.121352	370.855418	1264.239210	-155.059480	239.227710	1376.068243	-256.528982	249.128546	1359.217788	-333.260259	296.030437	1296.941618	-98.337462	283.817551	1183.391743	-446.317266	395.178350	1161.068411	-89.876560	462.405760	1106.890418	-105.158181	496.570699	1029.121114	-111.454631	485.551396	1128.225851	-127.201779	566.384480	901.188876	-144.050549	534.178477	885.987098	-253.932581	486.853460	804.769702	-114.824258	447.981325	722.486483	-125.709412	375.473521	676.561928	-126.294575	472.126073	705.212095	-151.533310	287.173675	553.424611	-124.678739	301.340745	554.333973	-212.020088	206.039365	544.375533	-157.216553	486.400614	434.785643	-169.922481	420.238798	434.521665	-108.910344	293.373953	1099.979182	-458.758543	324.810372	1018.943082	-457.575718	357.547398	1022.488764	-442.549360	311.421966	931.038583	-465.212854	298.708896	760.985432	-456.537878	315.276101	724.365976	-347.406583	239.514017	641.520464	-480.048928	219.381633	558.738664	-461.213698	159.849920	492.814037	-461.179778	245.472098	547.895469	-433.456776	87.660560	355.833985	-456.948753	89.167190	355.345777	-369.695706	18.275632	385.267257	-412.378056	224.732134	157.743933	-410.835721	149.654942	183.892967	-472.425434	-185.030605	935.251217	-284.505808	-17.557454	80.288226	-485.446775	-17.523830	79.491519	-84.586995	
501	2.5050	812.775480	1321.820415	-113.424886	779.815252	1335.646707	-427.498839	810.890061	1422.578532	-276.802802	751.165413	1269.579524	-275.374217	540.951228	1161.317734	17.850530	691.953809	947.414270	-91.424985	559.474715	1176.801892	-565.341039	681.290004	940.753909	-493.331251	205.529293	1333.194556	-293.451479	367.349015	1265.185118	-432.827189	341.796678	1335.144670	-122.636226	384.892721	1210.696262	-378.610748	371.044872	1264.773007	-154.008460	239.739622	1377.751225	-255.650741	249.775621	1361.629072	-331.867232	296.213203	1297.498330	-97.316486	285.406025	1185.850284	-446.350521	394.197955	1160.443965	-89.377538	460.970984	1105.598105	-105.420089	494.283086	1027.751738	-111.536325	484.290474	1126.933326	-126.839084	563.478836	899.367320	-144.715643	530.934440	884.171833	-254.432624	485.292433	801.361749	-115.272162	447.904666	718.401782	-126.161153	376.276681	671.194743	-126.637536	472.439635	701.537983	-151.980070	290.117947	546.244238	-124.899401	304.390143	547.071730	-212.365902	208.628890	536.452963	-156.760826	491.069474	429.624377	-170.069724	424.801591	428.742696	-109.091626	296.854135	1102.126800	-458.472306	328.902852	1021.439058	-456.815995	361.457271	1025.226301	-441.516297	316.512583	933.446190	-465.015068	302.891336	763.419877	-456.849196	318.304610	726.707487	-347.455422	242.333468	644.825009	-480.352400	220.565062	562.407568	-461.468408	159.926076	497.497936	-461.758559	246.174840	551.370818	-433.424169	84.793645	362.053686	-457.460770	86.377891	361.890675	-370.033712	15.604075	392.370715	-413.064034	219.625976	162.515424	-410.855833	144.859271	189.435624	-472.438545	-185.014524	935.238195	-284.512007	-17.533470	80.217585	-485.455434	-17.501446	79.464766	-84.593017	
502	2.5100	812.941982	1319.857486	-112.439551	779.495574	1335.068685	-426.521196	811.857394	1421.197861	-275.452756	751.323503	1268.657355	-275.396252	539.305728	1160.816665	17.349484	691.675389	947.766472	-91.816218	558.932882	1176.789351	-564.341314	681.119604	940.624504	-493.034668	206.065321	1335.184544	-292.564070	367.515047	1267.586761	-433.172525	342.221217	1335.427529	-121.399317	385.509623	1212.585451	-378.032192	371.147037	1265.077578	-153.157107	240.362008	1379.406664	-254.366461	250.430912	1363.730613	-330.468911	296.386027	1297.840573	-96.377167	287.130200	1188.215349	-446.399833	393.046574	1159.517482	-89.000110	459.337151	1104.008349	-105.239715	492.026714	1025.743403	-112.298362	482.915054	1125.358101	-126.310589	560.357662	897.204536	-145.214550	527.659609	881.841709	-254.953090	483.446401	797.895362	-115.598318	447.578348	714.197501	-126.540606	376.924449	665.593984	-126.966189	472.462109	697.787630	-152.363425	292.991690	538.984334	-125.188840	307.359456	539.714130	-212.621763	212.440515	527.873700	-157.230440	495.509513	424.222583	-170.293853	429.331150	422.731571	-109.369664	300.324068	1104.121101	-458.002742	332.894793	1023.613053	-456.034837	365.292249	1027.706139	-440.621159	321.291107	935.557322	-464.434972	306.685885	765.793004	-457.213759	321.194579	728.922969	-347.503664	245.365937	648.022099	-480.397630	222.016669	566.023069	-461.727514	160.255223	502.121811	-462.240891	247.079915	554.658175	-433.300411	81.938380	368.504471	-457.876312	83.582489	368.640096	-370.308158	13.028859	399.583999	-413.510358	214.749229	167.797577	-410.845305	140.283674	195.273841	-472.359181	-185.013394	935.198065	-284.733884	-17.537633	79.911866	-485.207905	-17.501473	79.472781	-84.578413	
503	2.5150	813.049079	1317.943710	-111.548845	779.241439	1334.609992	-425.630094	812.790498	1419.899147	-274.135726	751.575842	1267.855463	-275.580139	537.644740	1160.306872	16.853367	691.360515	948.018977	-92.333031	558.516683	1176.823738	-563.483981	681.034015	940.551087	-492.718343	206.623515	1336.960718	-291.590411	367.850949	1269.601005	-432.361019	342.676650	1335.530059	-120.091505	386.106385	1214.341472	-377.654063	371.491093	1265.334364	-152.328181	240.989085	1380.862287	-253.053778	251.117690	1365.494352	-329.118840	296.591356	1297.767416	-95.400880	289.072337	1190.374239	-446.476446	391.827200	1158.017921	-88.473129	457.637588	1101.999392	-105.087563	489.526965	1023.480309	-112.886352	481.458800	1123.205025	-125.706696	556.990667	894.650768	-145.690089	524.053963	879.187568	-255.467475	481.406712	794.123078	-115.859534	447.100566	709.816289	-126.850680	377.365063	659.766462	-127.222921	472.326705	693.793809	-152.568163	295.786007	531.448505	-125.353602	310.346033	532.226260	-212.998079	216.067922	519.023043	-157.798472	499.701253	418.416155	-170.401489	433.530030	416.390471	-109.505043	303.670288	1105.978974	-457.529739	336.677646	1025.621285	-455.362899	368.989854	1029.860592	-439.968962	325.714042	937.593351	-463.939558	310.475772	768.033098	-457.631461	324.277968	730.918503	-347.541068	248.489175	651.056925	-480.660257	223.575347	569.501170	-461.767743	160.655871	506.804755	-462.426853	248.235705	557.901586	-433.098884	79.241122	375.157607	-458.066299	80.744798	375.398367	-370.347020	10.521262	406.935972	-413.738082	210.155578	173.323806	-410.470221	136.021014	201.485929	-472.229420	-184.966876	935.187123	-284.757997	-17.554097	80.072328	-485.374255	-17.505097	79.477155	-84.614233	
504	2.5200	813.041988	1316.128271	-110.680276	778.998751	1334.370250	-424.614135	813.591543	1418.767131	-272.785909	751.897101	1267.155373	-275.874205	536.086315	1159.762193	16.322520	691.006923	948.266740	-92.921611	558.092130	1176.822084	-562.445890	681.049381	940.489145	-492.374622	207.117861	1338.536847	-290.715227	368.216585	1271.444509	-431.473620	343.263154	1335.476215	-118.893688	386.730956	1216.105742	-377.032726	372.026894	1265.480792	-151.646208	241.579799	1382.020525	-251.797581	251.706721	1366.963955	-327.773894	296.647568	1297.333329	-94.577779	291.429103	1192.478360	-446.980033	390.562225	1156.227802	-87.994144	455.891551	1099.562736	-105.060901	486.923888	1020.760516	-113.101846	479.968903	1120.740956	-125.090472	553.479424	891.812775	-146.168986	520.193632	876.139432	-255.928050	479.511977	789.889186	-116.322022	446.400008	705.095792	-127.068575	377.442249	653.875493	-127.061164	472.001890	689.549034	-152.730078	298.552621	523.682217	-125.586300	313.003938	524.514356	-213.189486	218.439814	510.794304	-157.225031	503.672782	412.380567	-170.520711	437.421188	409.673050	-109.711964	306.903928	1107.669532	-457.291413	340.190848	1027.389044	-454.864429	372.512847	1031.879419	-439.765550	329.891976	939.363593	-463.534012	314.427198	770.134761	-458.035651	327.873897	732.749222	-347.758357	251.760188	653.995394	-481.031445	225.118823	573.123039	-461.714232	160.924141	511.691236	-462.394359	249.456158	561.167123	-432.908744	76.728452	382.061105	-458.020961	77.900187	382.322207	-370.263765	8.128711	414.511324	-413.724013	206.107497	179.831323	-411.099746	132.016835	208.113407	-472.143181	-184.965076	935.174120	-284.900013	-17.542418	80.031838	-485.388658	-17.500420	79.474164	-84.641691	
